<svg xmlns="http://www.w3.org/2000/svg" viewBox="0 0 256 256"><rect width="256" height="256" rx="56" fill="#1b1f2a"/><g transform="translate(28 38) scale(1.0)"><g stroke="#eef1f6" stroke-linecap="round" stroke-width="3.2"><line x1="82.1" y1="68.1" x2="59.0" y2="106.8"/><path d="M54.9 113.7 L55.7 102.5 L64.3 107.6Z" fill="#eef1f6" stroke="none"/><circle cx="69.0" cy="90.0" r="3.6" fill="#eef1f6" stroke="none"/><line x1="117.9" y1="68.1" x2="141.0" y2="106.8"/><path d="M145.1 113.7 L135.7 107.6 L144.3 102.5Z" fill="#eef1f6" stroke="none"/><circle cx="131.0" cy="90.0" r="3.6" fill="#eef1f6" stroke="none"/><line x1="73.0" y1="142.0" x2="121.0" y2="142.0"/><path d="M129.0 142.0 L119.0 147.0 L119.0 137.0Z" fill="#eef1f6" stroke="none"/><circle cx="100.0" cy="142.0" r="3.6" fill="#eef1f6" stroke="none"/></g><g transform="translate(100 38)"><circle r="28" fill="#232733" stroke="#eef1f6" stroke-width="4.5"/><circle r="22" fill="none" stroke="#eef1f6" stroke-opacity="0.35" stroke-width="1.4"/><g transform="translate(-19.2 -19.2) scale(1.6)" fill="none" stroke="#eef1f6" stroke-width="2.2" stroke-linecap="round" stroke-linejoin="round"><path d="M6.2 12.4 10.2 16.3 17.8 7.9"/></g></g><g transform="translate(38 142)"><circle r="28" fill="#232733" stroke="#eef1f6" stroke-width="4.5"/><circle r="22" fill="none" stroke="#eef1f6" stroke-opacity="0.35" stroke-width="1.4"/><g transform="translate(-19.2 -19.2) scale(1.6)" fill="none" stroke="#eef1f6" stroke-width="2.2" stroke-linecap="round" stroke-linejoin="round"><circle cx="12" cy="12" r="6.4"/><path d="M5 17.6 19 6.4"/></g></g><g transform="translate(162 142)"><circle r="28" fill="#232733" stroke="#eef1f6" stroke-width="4.5"/><circle r="22" fill="none" stroke="#eef1f6" stroke-opacity="0.35" stroke-width="1.4"/><g transform="translate(-19.2 -19.2) scale(1.6)" fill="none" stroke="#eef1f6" stroke-width="2.2" stroke-linecap="round" stroke-linejoin="round"><path d="M9.6 5.5 8.2 18.5M15.8 5.5l-1.4 13M5.8 9.6h13M5.2 14.4h13"/></g></g></g></svg>
